<svg id="visual" viewBox="0 0 900 600" width="900" height="600" xmlns="http://www.w3.org/2000/svg" xmlns:xlink="http://www.w3.org/1999/xlink" version="1.1"><path d="M0 21L37.5 52.2C75 83.3 150 145.7 225 164.5C300 183.3 375 158.7 450 203.7C525 248.7 600 363.3 675 429.8C750 496.3 825 514.7 862.5 523.8L900 533L900 601L862.5 601C825 601 750 601 675 601C600 601 525 601 450 601C375 601 300 601 225 601C150 601 75 601 37.5 601L0 601Z" fill="#051923" stroke-linecap="round" stroke-linejoin="miter"></path></svg>