<?xml version="1.0" standalone="no"?>
<!DOCTYPE svg PUBLIC "-//W3C//DTD SVG 20010904//EN"
 "http://www.w3.org/TR/2001/REC-SVG-20010904/DTD/svg10.dtd">
<svg version="1.0" xmlns="http://www.w3.org/2000/svg"
 width="640.000000pt" height="640.000000pt" viewBox="0 0 640.000000 640.000000"
 preserveAspectRatio="xMidYMid meet">

<g transform="translate(0.000000,640.000000) scale(0.100000,-0.100000)"
fill="#000000" stroke="none">
<path d="M275 6389 c65 -21 93 -42 111 -80 13 -29 22 -38 33 -33 39 16 61 15
90 -6 17 -12 31 -28 31 -35 0 -14 -39 -86 -51 -95 -4 -3 -17 -27 -29 -55 -55
-124 -56 -132 -28 -141 28 -8 68 -50 68 -70 0 -8 -7 -37 -16 -64 -13 -39 -34
-67 -102 -133 -153 -148 -272 -291 -272 -325 0 -32 -35 -63 -74 -65 l-36 -2 0
-211 0 -211 26 5 c14 2 35 0 47 -6 12 -5 52 -20 89 -31 71 -23 113 -20 121 8
5 21 -21 111 -32 111 -8 0 -25 49 -19 55 2 2 16 7 32 11 28 7 29 6 22 -20 -6
-23 -4 -27 11 -24 25 5 113 -83 113 -113 -1 -16 -15 -35 -45 -58 -25 -18 -45
-37 -45 -42 0 -5 -7 -9 -15 -9 -17 0 -35 -30 -35 -59 0 -14 8 -22 28 -27 15
-3 33 -8 41 -10 8 -2 21 2 30 9 9 7 35 20 59 27 23 7 54 25 68 38 23 23 24 30
18 86 -4 34 -13 71 -21 82 -10 15 -11 28 -4 47 5 14 7 28 4 31 -4 3 17 6 45 6
56 0 69 -9 50 -39 -10 -17 -9 -23 6 -40 11 -12 16 -21 11 -21 -4 0 -3 -6 3
-13 19 -22 9 -83 -16 -104 -28 -22 -43 -89 -18 -80 9 4 15 1 13 -6 -4 -24 28
-11 89 38 63 50 73 70 54 105 -8 16 -6 22 15 36 21 14 32 15 71 5 25 -7 54 -9
65 -6 22 7 49 54 49 84 0 21 -38 56 -73 67 -12 4 -36 17 -53 30 -17 13 -37 24
-43 24 -7 0 -26 8 -42 17 -31 19 -41 63 -14 63 20 0 33 34 33 90 1 68 1 70 17
70 8 0 15 9 15 20 0 27 47 50 61 29 14 -22 11 -37 -11 -49 -29 -16 -25 -54 7
-76 16 -10 23 -19 15 -22 -14 -4 -16 -38 -3 -47 16 -9 61 41 61 68 0 19 7 27
28 33 22 6 63 6 68 1 1 -1 5 -16 8 -34 6 -24 3 -36 -11 -51 -25 -26 -43 -59
-36 -66 21 -21 80 2 131 51 7 7 19 13 26 13 16 0 49 25 105 81 60 59 92 96 92
106 0 4 6 11 13 15 7 4 26 26 41 50 16 24 52 70 80 103 29 33 59 69 68 80 61
76 151 181 158 183 5 2 9 7 9 12 0 9 68 112 79 120 24 18 51 68 51 95 0 26 -6
35 -32 48 -68 33 -145 57 -203 65 -48 6 -62 11 -71 30 -6 13 -21 32 -33 43
-11 11 -21 23 -21 28 0 4 -6 8 -12 9 -27 2 -121 40 -128 51 -9 15 -76 51 -94
51 -8 0 -16 6 -19 14 -3 8 -19 17 -36 21 -17 4 -33 11 -36 16 -4 5 -186 9
-443 8 -297 0 -427 -4 -407 -10z m270 -1019 c17 0 4 -53 -20 -76 -22 -22 -45
-1 -45 41 0 33 13 47 38 39 8 -2 20 -4 27 -4z m8 -132 c27 -34 26 -54 -7 -80
-28 -23 -69 -23 -90 0 -15 17 -15 22 -1 56 13 31 39 53 67 55 4 1 18 -13 31
-31z m-169 -144 c25 -10 -3 -44 -36 -44 -23 0 -28 4 -28 25 0 20 5 25 24 25
13 0 31 -3 40 -6z"/>
<path d="M1726 6279 c3 -5 14 -9 24 -9 10 0 23 -6 27 -13 15 -24 153 -67 153
-47 -1 15 -18 27 -47 33 -18 4 -41 15 -52 26 -14 14 -33 19 -65 19 -26 0 -44
-4 -40 -9z"/>
<path d="M27 6123 l-27 -4 0 -197 c0 -108 4 -203 9 -211 7 -11 17 -6 46 20 60
53 74 70 127 142 28 37 63 74 79 83 31 15 41 54 14 54 -23 0 -85 33 -137 73
-50 39 -70 46 -111 40z"/>
<path d="M4539 5296 c-2 -2 -51 -7 -109 -10 -97 -5 -136 -12 -320 -53 -36 -8
-77 -15 -92 -16 -16 -1 -28 -4 -28 -7 0 -4 -17 -12 -37 -19 -21 -7 -49 -20
-63 -29 -14 -9 -35 -17 -47 -18 -13 -2 -38 -13 -55 -26 -18 -13 -35 -23 -38
-24 -19 -3 -58 -25 -69 -38 -7 -9 -22 -16 -32 -16 -10 0 -21 -5 -24 -10 -4 -6
-24 -22 -46 -36 -22 -13 -51 -38 -66 -54 -14 -17 -32 -30 -38 -30 -7 0 -18 -7
-25 -15 -10 -12 -10 -15 0 -15 19 0 6 -11 -17 -14 -13 -3 -17 -10 -15 -31 3
-24 0 -27 -17 -22 -12 3 -21 1 -21 -4 0 -5 7 -9 15 -9 8 0 15 -7 15 -16 0 -12
-3 -14 -13 -6 -15 13 -50 9 -54 -5 -2 -6 1 -14 6 -18 18 -10 12 -25 -9 -25
-11 0 -23 7 -26 15 -4 8 -12 15 -20 15 -19 0 -18 -16 2 -24 12 -5 10 -10 -13
-31 -15 -13 -22 -25 -15 -25 6 0 12 -7 12 -15 0 -10 -11 -15 -32 -16 -18 0
-27 -3 -20 -6 24 -9 12 -22 -17 -17 -17 4 -41 0 -60 -10 -19 -10 -31 -12 -31
-6 0 6 -5 8 -10 5 -6 -4 -8 -11 -5 -16 4 -5 -2 -12 -12 -16 -10 -4 -20 -9 -23
-13 -3 -3 -27 -14 -55 -25 -72 -26 -133 -82 -135 -121 0 -6 25 -14 57 -17 32
-3 59 -11 61 -16 2 -5 20 -15 40 -22 46 -14 52 -20 104 -81 38 -46 39 -49 15
-43 -13 4 -28 2 -31 -3 -4 -6 2 -8 14 -5 21 6 25 -3 12 -24 -12 -19 -101 -14
-122 7 -35 35 -147 62 -176 42 -19 -13 -75 -102 -70 -111 3 -4 2 -21 -2 -37
-5 -18 -3 -43 4 -64 7 -19 13 -28 13 -18 1 11 7 15 21 11 14 -4 19 -11 15 -23
-4 -12 1 -19 15 -23 16 -4 19 -11 14 -35 -6 -28 -3 -32 30 -46 20 -8 36 -20
36 -25 0 -6 14 -11 31 -11 39 0 70 -16 63 -34 -4 -9 7 -18 33 -27 25 -9 32
-14 21 -17 -10 -2 -18 -10 -18 -18 0 -17 -17 -19 -23 -1 -2 6 -2 1 0 -11 3
-21 1 -23 -24 -18 -26 6 -28 4 -29 -24 -1 -24 1 -28 12 -19 11 9 18 8 31 -2 9
-8 19 -14 22 -14 3 0 5 -4 3 -9 -1 -4 3 -15 10 -23 9 -11 9 -16 -1 -23 -9 -5
-10 -10 -2 -14 6 -4 11 -4 11 1 0 18 61 35 98 28 30 -6 33 -9 18 -14 -14 -5
-16 -10 -8 -15 7 -4 17 -4 24 0 8 5 9 0 6 -14 -4 -15 -2 -22 8 -22 9 0 14 10
14 27 0 25 1 26 13 8 12 -15 12 -26 -1 -69 -8 -28 -20 -56 -28 -62 -16 -13
-19 -34 -4 -34 6 0 10 -4 10 -10 0 -5 -11 -10 -24 -10 -20 0 -23 -4 -19 -21 5
-18 3 -20 -16 -14 -17 5 -21 2 -21 -14 0 -22 -20 -30 -20 -8 -1 6 -9 2 -19
-11 -13 -14 -25 -20 -36 -16 -15 6 -16 4 -6 -14 10 -18 9 -22 -4 -22 -8 0 -15
-7 -15 -15 0 -9 -9 -15 -21 -15 -17 0 -19 -3 -10 -14 12 -14 5 -46 -10 -46 -5
0 -9 -7 -9 -15 0 -8 4 -15 9 -15 11 0 71 -52 71 -62 0 -4 13 -26 29 -50 16
-24 32 -57 35 -75 4 -17 14 -37 22 -44 12 -10 12 -14 2 -20 -7 -5 -13 -14 -13
-21 -1 -23 -41 -10 -81 27 -21 20 -60 46 -86 58 -26 12 -44 26 -41 32 4 5 3 7
-1 3 -4 -3 -23 -2 -42 3 -40 12 -109 -4 -118 -26 -4 -11 -13 -14 -31 -9 -19 5
-25 2 -25 -10 0 -9 7 -16 15 -16 8 0 15 -6 15 -12 1 -16 50 -53 50 -38 0 24
19 7 19 -17 2 -59 8 -76 34 -90 31 -16 49 -10 40 14 -4 10 -2 14 7 11 15 -5
21 -46 8 -54 -15 -9 -8 -24 11 -24 11 0 23 -4 26 -10 3 -6 -5 -10 -18 -10 -19
0 -26 -6 -30 -27 -3 -16 -4 -30 -2 -32 8 -8 64 45 64 62 1 9 5 17 10 17 5 0 8
-8 7 -17 -1 -12 7 -19 24 -21 14 -2 30 -8 36 -13 6 -5 19 -2 33 7 13 9 29 13
39 9 9 -4 37 -9 62 -10 25 -1 50 -4 55 -5 6 -2 22 2 36 9 27 13 55 73 44 92
-4 6 2 13 14 16 23 6 27 19 9 27 -9 3 -8 8 5 16 18 11 18 12 0 26 -15 11 -16
15 -4 23 18 11 41 101 31 121 -10 21 -1 40 19 40 20 0 24 28 8 49 -9 10 -6 17
8 27 18 13 18 16 3 30 -15 15 -17 15 -28 -5 -6 -12 -16 -19 -22 -15 -7 4 -6 9
3 15 11 7 9 13 -11 29 l-25 19 32 11 c24 9 31 16 28 32 -5 24 22 68 41 68 8 0
14 6 14 13 0 7 16 12 45 13 31 1 45 -3 45 -11 0 -8 8 -11 20 -8 15 4 19 2 15
-9 -4 -10 1 -17 14 -21 12 -3 21 -11 21 -19 0 -7 11 -18 24 -24 22 -10 25 -9
31 13 3 13 1 42 -5 64 -6 22 -7 45 -3 52 4 6 6 20 5 29 -4 20 33 44 43 28 3
-5 3 -14 0 -20 -3 -5 0 -10 9 -10 8 0 16 5 18 12 3 8 15 4 36 -12 17 -14 31
-28 31 -32 1 -15 -40 -8 -45 7 -8 19 -34 20 -34 0 0 -8 9 -20 20 -27 11 -7 20
-19 20 -26 0 -15 44 -62 58 -62 16 0 52 -37 44 -45 -4 -4 5 -5 21 -1 21 5 29
2 34 -11 4 -10 10 -20 13 -23 4 -3 20 -15 36 -27 41 -32 96 -68 117 -76 9 -3
17 -13 17 -22 0 -8 9 -15 21 -15 11 0 18 -4 14 -9 -3 -5 -1 -12 5 -16 6 -4 2
-14 -9 -27 -16 -17 -18 -24 -8 -39 14 -22 21 -23 48 -9 20 11 28 -3 9 -15 -5
-3 -10 -17 -10 -31 l0 -25 25 26 c29 28 47 34 22 7 -15 -17 -15 -19 0 -35 16
-16 16 -17 0 -17 -19 0 -23 -20 -6 -37 19 -19 -10 -26 -36 -9 -26 17 -32 12
-16 -13 5 -7 13 -11 19 -7 6 3 14 1 18 -5 3 -6 0 -15 -7 -20 -11 -7 -10 -9 4
-9 15 0 15 -3 5 -20 -7 -11 -21 -20 -30 -20 -12 0 -15 -5 -11 -16 5 -13 2 -15
-14 -10 -15 5 -23 0 -32 -20 -15 -33 -7 -42 17 -21 18 16 19 15 20 -23 2 -38
0 -40 -22 -34 -13 3 -27 1 -30 -5 -11 -16 -29 -13 -23 4 4 8 2 17 -4 20 -5 4
-12 0 -15 -9 -3 -8 -12 -12 -20 -9 -9 3 -14 -2 -14 -16 0 -13 -6 -21 -17 -21
-13 0 -14 -3 -5 -12 18 -18 15 -35 -8 -41 -11 -3 -20 -1 -20 3 0 13 -30 40
-44 40 -7 0 -19 -11 -26 -25 -7 -14 -20 -25 -27 -25 -10 0 -12 -7 -8 -20 5
-15 2 -20 -14 -20 -11 0 -23 -4 -26 -10 -3 -5 -16 -10 -28 -10 -16 0 -18 3 -8
9 11 7 11 10 0 17 -7 4 -14 3 -17 -4 -2 -7 -19 -12 -38 -12 -25 0 -34 -4 -34
-17 0 -16 -1 -16 -13 0 -11 16 -16 14 -55 -23 -45 -41 -64 -45 -55 -10 7 25
-12 26 -26 3 -10 -17 -12 -14 -15 20 -1 15 -53 67 -67 67 -6 0 -9 7 -5 15 3
10 -3 17 -19 21 -14 3 -30 14 -35 23 -9 15 -9 14 -10 -1 0 -10 -6 -18 -13 -18
-7 0 -14 -11 -15 -25 -1 -14 3 -25 8 -25 6 0 10 -9 10 -20 0 -14 -5 -18 -17
-13 -16 6 -16 5 -4 -10 12 -15 11 -17 -10 -18 -23 -1 -23 -1 4 -12 15 -6 27
-14 27 -18 0 -13 -18 -20 -25 -9 -10 16 -38 12 -32 -4 4 -11 -5 -16 -34 -21
-29 -5 -39 -11 -35 -21 4 -10 -2 -14 -19 -14 -14 0 -25 -4 -25 -10 0 -5 9 -10
21 -10 12 0 17 -4 14 -11 -4 -6 -13 -8 -21 -5 -8 3 -14 -1 -14 -9 0 -8 5 -15
10 -15 22 0 8 -19 -21 -29 -30 -10 -31 -10 -25 14 5 18 1 27 -15 35 -26 14
-47 -1 -51 -38 -4 -40 -22 -33 -33 13 -5 22 -14 45 -20 50 -20 19 -63 37 -74
31 -10 -7 -16 6 -12 27 1 5 -3 5 -10 2 -6 -4 -19 2 -30 14 -11 12 -26 21 -33
21 -7 0 -41 27 -75 60 -34 33 -69 60 -77 60 -8 0 -14 7 -14 16 0 11 -6 14 -21
9 -18 -6 -20 -4 -14 15 6 20 4 22 -19 18 -14 -3 -26 -2 -26 3 0 4 -22 6 -49 3
-40 -3 -50 -1 -55 13 -6 15 -9 15 -16 3 -7 -11 -11 -8 -19 13 -6 16 -11 34
-11 42 0 9 -7 11 -22 7 -14 -3 -19 -1 -14 6 3 6 -2 13 -13 17 -11 3 -24 19
-30 35 -5 17 -17 30 -25 30 -9 0 -23 11 -32 25 -9 14 -20 22 -25 20 -4 -3 -14
3 -21 15 -16 25 -57 27 -60 3 0 -10 -2 -25 -2 -33 -1 -8 7 -23 19 -34 11 -10
19 -22 18 -27 -3 -9 31 -30 44 -28 21 5 43 -15 43 -39 0 -32 57 -86 107 -103
22 -7 32 -16 29 -24 -3 -8 5 -16 20 -19 14 -4 43 -23 64 -44 22 -20 61 -45 87
-54 27 -9 42 -17 36 -18 -19 0 -16 -18 5 -23 12 -3 9 -5 -8 -6 -24 -2 -24 -2
-6 -16 11 -8 31 -25 46 -38 15 -14 33 -27 41 -30 8 -3 4 -6 -10 -6 -19 -1 -22
-4 -14 -12 6 -6 9 -18 6 -27 -5 -12 -1 -14 15 -10 22 6 39 -16 22 -27 -6 -4
-10 -1 -10 4 0 6 -5 11 -11 11 -8 0 -8 -4 0 -14 7 -8 9 -26 6 -43 -5 -21 -4
-24 4 -13 12 17 12 16 16 -20 2 -14 -2 -31 -7 -37 -8 -9 -6 -13 5 -13 9 0 17
10 20 23 3 21 4 21 15 -7 10 -23 10 -34 -3 -58 -8 -17 -12 -34 -10 -39 6 -9
-34 -39 -52 -39 -7 0 -10 7 -7 15 4 9 0 15 -9 15 -8 0 -17 -6 -20 -12 -3 -10
-7 -10 -17 -1 -10 9 -16 8 -27 -3 -18 -17 -34 -18 -30 -2 1 7 -8 14 -19 16
-12 2 -24 13 -27 24 -5 17 -9 19 -20 9 -16 -13 -47 -5 -47 13 0 9 -55 66 -65
66 -9 0 -13 -45 -4 -51 6 -3 -5 -13 -23 -22 -18 -9 -27 -17 -20 -17 8 0 10 -5
5 -12 -15 -25 -13 -48 5 -48 13 -1 10 -7 -13 -25 -36 -30 -55 -32 -62 -5 -3
11 -9 20 -14 20 -12 0 -11 -17 0 -25 9 -5 9 -17 -4 -61 -4 -12 0 -25 9 -33 8
-7 12 -19 9 -27 -4 -10 -14 2 -29 33 -24 48 -27 49 -26 3 1 -19 -1 -21 -5 -6
-7 26 -28 46 -48 46 -11 0 -15 5 -11 15 3 9 0 15 -10 15 -8 0 -17 7 -20 15 -4
8 -10 15 -15 15 -17 0 -9 -29 13 -50 12 -11 18 -23 15 -27 -4 -3 -7 -1 -7 5 0
7 -7 12 -15 12 -17 0 -21 -16 -5 -22 5 -2 7 -13 4 -26 -5 -17 -16 -24 -48 -29
-22 -3 -36 -8 -30 -10 7 -2 10 -13 7 -24 -4 -15 -2 -18 11 -13 9 4 16 1 16 -6
0 -9 -11 -11 -34 -7 -28 4 -34 3 -29 -9 3 -8 0 -14 -6 -14 -19 0 -12 -25 21
-69 l31 -43 13 23 c11 21 13 22 19 6 4 -9 5 -26 2 -37 -3 -11 -1 -20 4 -20 5
0 9 7 9 15 0 20 17 19 29 -2 10 -17 10 -17 11 0 0 13 6 17 23 15 12 -2 21 -9
20 -16 -3 -11 10 -16 30 -13 5 1 6 -8 2 -19 -4 -11 -2 -20 4 -20 15 0 14 -37
-1 -43 -7 -3 -3 -6 10 -6 12 -1 22 4 22 9 0 6 6 10 14 10 9 0 12 -7 9 -20 -4
-14 1 -21 21 -26 20 -5 24 -10 16 -19 -7 -8 -4 -17 10 -30 11 -10 20 -24 20
-32 0 -7 5 -13 12 -13 15 0 75 -66 83 -91 5 -15 12 -18 33 -13 17 3 22 2 15
-3 -15 -10 105 -66 134 -62 23 3 54 -11 48 -21 -3 -4 2 -11 11 -14 8 -3 12 -2
9 4 -3 6 -2 10 4 10 5 0 13 -9 16 -21 5 -14 13 -19 26 -16 10 3 19 1 19 -5 0
-14 21 -33 59 -52 30 -16 35 -16 56 -2 28 18 49 21 39 5 -4 -6 1 -10 12 -8 11
1 31 -4 47 -11 15 -7 30 -10 34 -7 10 11 -29 48 -44 43 -7 -3 -28 4 -46 15
l-32 21 33 -4 c19 -3 32 0 32 6 0 6 -13 11 -30 11 -16 0 -29 4 -29 9 0 5 -5
13 -13 17 -8 5 -2 8 17 6 16 -1 30 3 30 8 0 6 6 19 12 30 12 20 12 19 13 -2 0
-14 6 -23 15 -23 8 0 15 7 15 15 0 17 16 20 26 4 3 -6 17 -9 31 -6 20 4 24 1
20 -14 -6 -21 12 -26 29 -9 7 7 16 4 28 -9 10 -11 24 -17 31 -15 7 3 23 0 36
-6 18 -10 24 -9 31 4 15 26 29 18 16 -9 -7 -17 -8 -28 -1 -37 6 -7 7 -22 3
-32 -4 -14 -9 -16 -14 -8 -11 18 -22 15 -34 -10 -10 -22 -11 -21 -11 10 -1 21
-6 32 -16 32 -9 0 -12 -6 -9 -15 4 -8 1 -15 -5 -15 -6 0 -11 5 -11 10 0 6 -10
10 -21 10 -19 0 -20 -2 -8 -17 8 -9 9 -14 4 -11 -6 4 -17 3 -25 -3 -13 -7 -12
-9 2 -9 9 0 19 -4 22 -8 6 -10 -30 -9 -40 1 -11 11 -44 8 -44 -3 0 -5 7 -10
15 -10 8 0 15 -4 15 -10 0 -5 11 -10 25 -10 14 0 34 -4 45 -10 11 -5 29 -15
40 -20 11 -6 33 -10 50 -10 39 0 38 -12 -2 -32 l-33 -15 32 1 c17 0 29 4 26 9
-2 4 3 7 11 7 9 0 16 -5 16 -11 0 -6 12 -8 33 -5 l32 6 -35 -13 c-20 -8 -73
-13 -122 -13 -49 1 -88 -2 -88 -6 0 -8 198 -3 223 6 46 17 50 17 38 2 -9 -11
-9 -15 1 -19 7 -2 0 -2 -17 0 -28 4 -29 4 -10 -9 12 -9 40 -14 68 -12 26 1 47
-3 47 -8 0 -5 8 -7 19 -3 26 8 234 -28 256 -45 6 -5 24 -10 40 -11 41 -4 215
12 216 20 0 3 2 14 4 23 2 10 -1 20 -6 24 -5 3 -9 14 -9 25 0 10 -3 19 -7 19
-9 0 -41 64 -50 100 -3 14 -8 83 -10 153 -5 136 3 179 39 198 10 5 16 15 12
21 -4 5 2 38 12 72 14 50 29 72 81 125 34 35 65 72 68 82 4 11 16 19 28 20 12
0 16 3 9 6 -16 6 3 33 24 33 8 0 14 6 14 14 0 16 62 86 77 86 5 0 20 18 33 40
14 21 37 44 53 49 15 6 27 15 27 20 0 6 7 11 15 11 8 0 15 4 15 10 0 15 82 90
99 90 6 0 12 9 16 19 10 33 34 33 77 -2 35 -28 47 -32 99 -32 32 1 64 6 71 13
7 7 20 12 29 12 9 0 22 6 28 14 12 14 129 88 184 115 15 7 27 17 27 22 0 5 7
9 15 9 7 0 18 6 22 13 4 7 31 30 58 51 49 36 100 83 159 145 16 17 35 31 43
31 7 0 13 6 13 14 0 10 7 12 22 8 14 -3 19 -2 14 6 -4 7 -14 12 -22 12 -18 0
-18 17 0 27 8 4 15 10 15 13 0 6 13 41 35 94 35 85 -16 191 -98 205 -22 3 -41
11 -43 17 -3 10 64 106 80 112 4 2 7 10 7 18 0 8 4 14 8 14 8 0 118 164 140
210 28 58 50 85 66 82 9 -2 16 2 16 8 0 5 -6 10 -12 10 -8 1 -6 6 4 14 10 7
15 16 12 19 -6 6 35 69 49 75 4 2 7 12 7 22 0 9 7 23 15 30 9 7 14 19 11 27
-3 8 0 16 8 19 13 5 27 42 57 154 27 94 35 232 20 311 -10 51 -10 63 1 70 10
7 9 9 -4 9 -13 0 -18 8 -18 31 0 46 -22 173 -31 184 -5 5 -9 17 -9 27 0 11 -9
37 -20 58 -11 22 -19 43 -18 47 2 12 -19 58 -47 103 -14 23 -24 47 -22 53 2 7
-7 20 -20 30 -13 10 -23 24 -23 31 0 22 -104 155 -182 233 -42 41 -167 141
-185 147 -11 4 -32 17 -47 29 -23 20 -153 88 -299 157 -27 12 -108 33 -180 45
-73 13 -145 28 -160 34 -32 12 -32 12 -38 7z m-759 -290 c0 -3 -4 -8 -10 -11
-5 -3 -10 -1 -10 4 0 6 5 11 10 11 6 0 10 -2 10 -4z m-280 -174 c0 -9 -59 -36
-66 -30 -2 3 -2 13 2 22 6 16 64 24 64 8z m-20 -52 c0 -5 -9 -10 -20 -10 -11
0 -20 5 -20 10 0 6 9 10 20 10 11 0 20 -4 20 -10z m-17 -45 c0 -6 -7 -11 -16
-13 -12 -3 -15 1 -11 13 7 17 25 17 27 0z m87 -4 c1 9 4 8 11 -4 13 -22 3 -35
-13 -19 -7 7 -21 12 -32 12 -17 0 -18 2 -6 10 9 5 19 5 27 -2 10 -8 13 -7 13
3z m60 -1 c0 -5 -2 -10 -4 -10 -3 0 -8 5 -11 10 -3 6 -1 10 4 10 6 0 11 -4 11
-10z m-262 -22 c19 -19 14 -28 -13 -28 -27 0 -28 1 -19 24 7 19 16 20 32 4z
m432 8 c0 -11 -19 -15 -25 -6 -3 5 1 10 9 10 9 0 16 -2 16 -4z m-140 -26 c24
-8 24 -8 -7 -9 -17 -1 -35 4 -38 9 -7 11 9 11 45 0z m-118 -25 c0 -5 -5 -11
-11 -13 -6 -2 -11 4 -11 13 0 9 5 15 11 13 6 -2 11 -8 11 -13z m278 5 c0 -5
-4 -10 -10 -10 -5 0 -10 5 -10 10 0 6 5 10 10 10 6 0 10 -4 10 -10z m-440 -50
c0 -5 -6 -10 -14 -10 -8 0 -18 5 -21 10 -3 6 3 10 14 10 12 0 21 -4 21 -10z
m60 -10 c0 -5 -4 -10 -10 -10 -5 0 -10 5 -10 10 0 6 5 10 10 10 6 0 10 -4 10
-10z m510 0 c0 -5 -7 -7 -15 -4 -8 4 -15 8 -15 10 0 2 7 4 15 4 8 0 15 -4 15
-10z m140 -15 c0 -14 -4 -25 -10 -25 -5 0 -10 11 -10 25 0 14 5 25 10 25 6 0
10 -11 10 -25z m-760 -11 c0 -21 40 -17 41 4 0 13 2 14 6 2 3 -8 13 -21 22
-29 15 -13 15 -13 -1 -8 -11 4 -18 1 -18 -6 0 -7 14 -13 30 -14 21 -2 30 2 30
12 0 8 6 15 13 15 6 0 23 3 37 6 23 5 24 4 8 -9 -23 -18 -22 -23 1 -48 12 -13
21 -17 26 -10 3 6 -1 14 -9 17 -20 8 -21 34 -1 34 7 0 18 -8 24 -17 9 -16 11
-16 28 -1 13 12 33 15 73 13 61 -3 88 5 50 16 -23 6 -22 7 8 8 25 1 35 -4 41
-21 8 -20 10 -21 16 -5 9 21 21 22 29 1 4 -9 2 -13 -5 -8 -7 4 -9 -1 -7 -12 2
-13 11 -18 23 -16 11 2 30 5 43 5 12 1 22 8 22 16 0 10 3 11 14 2 11 -9 16 -6
25 19 10 31 31 33 31 5 0 -8 6 -12 14 -9 7 3 16 -2 19 -10 4 -9 13 -16 22 -16
18 0 19 11 3 29 -11 11 -9 11 10 2 13 -7 26 -19 29 -27 6 -17 30 -18 36 -1 3
9 9 7 23 -5 16 -16 20 -16 35 -2 15 14 22 13 68 -2 28 -9 48 -20 45 -25 -3 -5
1 -9 10 -9 8 0 16 5 18 12 3 7 7 5 11 -6 4 -9 3 -15 -2 -11 -5 3 -12 1 -15 -4
-9 -14 5 -42 17 -34 6 4 8 -1 5 -14 -3 -11 1 -31 8 -44 11 -20 10 -28 -3 -48
-14 -21 -13 -25 11 -50 33 -34 33 -43 0 -35 -24 6 -25 5 -15 -15 8 -14 21 -21
41 -21 17 0 30 -5 30 -10 0 -6 -11 -8 -26 -4 -18 5 -29 1 -39 -12 -10 -13 -17
-15 -22 -8 -5 6 -25 14 -46 18 l-38 7 21 -21 c14 -14 19 -28 15 -41 -8 -24 11
-25 37 -3 17 16 19 15 44 -9 17 -17 24 -33 20 -43 -4 -11 1 -24 13 -36 11 -10
19 -24 17 -31 -1 -6 -1 -9 1 -4 10 16 23 5 37 -28 8 -19 22 -35 30 -35 28 0
17 -17 -15 -24 -27 -5 -30 -8 -19 -21 7 -8 18 -15 25 -15 7 0 15 -8 19 -17 3
-10 9 -24 12 -30 3 -7 1 -13 -4 -13 -5 0 -13 11 -16 25 -4 14 -12 25 -20 25
-20 0 -27 -12 -15 -26 7 -9 2 -14 -21 -19 -35 -8 -52 1 -30 15 13 8 12 10 -2
10 -9 0 -18 -4 -20 -9 -4 -13 -108 -1 -108 13 0 6 -15 20 -33 31 -46 28 -47
28 -47 11 0 -9 5 -16 10 -16 6 0 10 -6 10 -14 0 -9 -7 -12 -20 -9 -11 3 -20
10 -20 17 0 6 -4 5 -9 -3 -6 -9 -10 -2 -13 23 -4 33 -2 36 27 42 l30 7 -25 9
c-13 5 -35 6 -47 3 -16 -4 -23 -1 -23 9 0 18 -22 26 -52 19 -21 -6 -22 -5 -9
10 12 15 11 17 -3 17 -9 0 -16 7 -16 15 0 17 -25 20 -35 5 -4 -7 -13 -7 -26 0
-24 13 -27 -11 -4 -30 22 -18 19 -45 -6 -47 -18 -2 -20 3 -17 28 3 20 0 29 -9
29 -8 0 -11 5 -8 11 4 6 -1 17 -11 24 -22 17 -54 20 -54 5 0 -5 -7 -7 -15 -4
-20 8 -45 -13 -45 -37 0 -11 -4 -19 -8 -19 -9 0 -6 -75 4 -91 5 -8 10 -6 16 5
5 9 16 16 25 16 14 0 14 -3 -2 -20 -15 -16 -16 -23 -6 -33 9 -9 14 -9 21 3 8
13 10 12 10 -3 0 -10 5 -15 10 -12 6 3 10 -2 10 -12 0 -10 3 -28 6 -40 5 -17
2 -23 -10 -23 -9 0 -16 5 -16 11 0 6 -7 3 -16 -6 -11 -11 -26 -14 -43 -10 -21
4 -36 -2 -65 -27 -21 -18 -42 -42 -47 -53 -6 -17 -8 -17 -8 -2 -1 11 -9 17
-25 17 -31 0 -42 -16 -20 -28 14 -8 14 -10 -5 -15 -16 -4 -21 -1 -21 13 0 24
-25 33 -40 14 -7 -8 -21 -14 -31 -14 -10 0 -21 -4 -24 -10 -3 -5 -11 -10 -16
-10 -6 0 -7 5 -3 12 5 8 2 9 -12 3 -26 -11 -122 -22 -133 -16 -14 10 -10 69 5
82 10 8 13 21 8 42 -4 19 -3 27 4 23 6 -3 13 -2 17 4 3 5 1 10 -4 10 -6 0 -11
7 -11 16 0 8 -4 12 -10 9 -19 -12 -10 6 19 37 28 30 29 33 15 60 -8 16 -18 52
-21 79 -3 29 -12 53 -19 56 -8 3 -14 10 -14 15 0 6 7 8 15 4 8 -3 15 0 15 7 1
7 7 1 15 -13 l15 -25 -6 28 c-5 23 -3 29 15 34 20 5 26 15 22 37 -1 5 4 6 11
4 15 -6 23 58 8 67 -6 4 -6 15 1 32 10 27 4 63 -11 63 -5 0 -7 6 -4 14 7 19
-16 32 -27 15 -8 -11 -12 -11 -24 5 -8 10 -12 22 -10 27 3 4 1 10 -5 14 -5 3
-10 1 -10 -4 0 -6 -5 -11 -11 -11 -5 0 -3 10 5 22 18 26 21 42 6 33 -6 -4 -22
0 -35 9 -13 9 -32 16 -42 16 -12 1 -8 5 11 13 l29 13 -28 22 c-15 12 -22 22
-15 22 7 0 11 3 7 6 -3 3 6 16 20 28 28 25 93 25 93 0z m330 6 c12 -8 11 -10
-7 -10 -13 0 -23 5 -23 10 0 13 11 13 30 0z m486 -17 c-2 -20 -10 -29 -25 -31
-25 -4 -27 14 -4 40 23 25 32 22 29 -9z m55 -13 c15 0 10 -17 -6 -24 -12 -4
-15 3 -14 32 1 23 3 29 6 15 2 -13 9 -23 14 -23z m-338 15 c4 -8 2 -17 -3 -20
-6 -4 -10 3 -10 14 0 25 6 27 13 6z m-216 -11 c-3 -3 -12 -4 -19 -1 -8 3 -5 6
6 6 11 1 17 -2 13 -5z m687 -99 c-4 -8 -10 -15 -15 -15 -5 0 -9 7 -9 15 0 8 7
15 15 15 9 0 12 -6 9 -15z m56 -49 c0 -11 -19 -15 -25 -6 -3 5 1 10 9 10 9 0
16 -2 16 -4z m-10 -105 c0 -12 -46 -41 -54 -34 -11 11 -6 23 9 23 8 0 15 5 15
10 0 6 7 10 15 10 8 0 15 -4 15 -9z m70 -63 c0 -6 -7 -5 -15 2 -8 7 -15 17
-15 22 0 6 7 5 15 -2 8 -7 15 -17 15 -22z m-60 -78 c0 -5 -4 -10 -10 -10 -5 0
-10 5 -10 10 0 6 5 10 10 10 6 0 10 -4 10 -10z m-1323 -6 c-3 -3 -12 -4 -19
-1 -8 3 -5 6 6 6 11 1 17 -2 13 -5z m67 -45 c-2 -4 -18 -1 -34 8 -17 8 -28 18
-25 23 3 5 18 1 34 -8 16 -9 27 -20 25 -23z m-141 15 c18 -9 33 -17 34 -18 1
0 -5 -23 -12 -51 -8 -32 -9 -58 -3 -74 5 -13 7 -26 4 -28 -9 -10 -75 27 -104
58 -37 40 -41 76 -12 107 25 26 50 28 93 6z m1390 -72 c-20 -21 -28 -20 -20 3
4 8 13 15 22 15 13 0 12 -3 -2 -18z m87 -104 c0 -6 -6 -5 -15 2 -8 7 -15 14
-15 16 0 2 7 1 15 -2 8 -4 15 -11 15 -16z m-1392 -49 c2 -5 10 -9 17 -9 8 0
20 -9 28 -20 8 -11 17 -18 20 -15 4 3 4 1 0 -4 -5 -5 -25 -14 -46 -19 -29 -8
-37 -8 -34 1 2 7 14 11 26 10 25 -3 28 15 4 23 -44 13 -83 35 -83 45 0 13 63
2 68 -12z m128 7 c21 -21 17 -26 -10 -13 -13 7 -22 15 -20 19 7 11 14 10 30
-6z m1066 -88 c-9 -9 -15 -9 -24 0 -9 9 -7 12 12 12 19 0 21 -3 12 -12z m267
-57 c6 -10 7 -21 4 -25 -7 -7 -43 23 -43 36 0 16 29 8 39 -11z m-318 -8 c12
-15 12 -16 -4 -10 -10 4 -23 7 -28 7 -6 0 -7 5 -4 10 9 15 21 12 36 -7z m233
1 c4 -10 1 -14 -6 -12 -15 5 -23 28 -10 28 5 0 13 -7 16 -16z m-450 -20 c9 -3
16 -12 16 -20 0 -17 5 -17 48 -5 20 6 32 6 32 0 0 -5 24 -9 54 -9 48 0 58 -4
87 -32 18 -18 34 -42 34 -52 1 -11 7 -22 13 -24 5 -1 22 -14 37 -28 14 -13 38
-24 52 -24 24 0 25 -2 19 -37 -4 -25 -3 -33 3 -24 10 15 31 7 31 -14 0 -7 7
-16 16 -19 13 -5 13 -8 2 -19 -7 -7 -16 -13 -19 -13 -3 1 -13 -5 -22 -12 -20
-17 -57 -6 -57 16 0 14 -2 15 -10 2 -8 -12 -10 -12 -15 2 -4 9 -12 15 -19 12
-19 -7 -65 13 -105 47 -52 43 -53 44 -88 59 -18 8 -33 18 -33 22 0 5 -7 8 -15
8 -8 0 -15 5 -15 10 0 6 -6 10 -14 10 -7 0 -19 7 -26 15 -9 10 -9 15 -1 15 6
0 11 -5 11 -12 0 -6 3 -8 7 -5 3 4 -1 15 -10 25 -10 10 -14 22 -10 25 3 4 -7
7 -23 8 l-29 1 35 13 c19 7 30 14 23 14 -17 1 -44 31 -38 42 7 11 9 11 29 3z
m497 -17 c-13 -13 -26 -3 -16 12 3 6 11 8 17 5 6 -4 6 -10 -1 -17z m-1246 -27
c-3 -5 -10 -10 -16 -10 -5 0 -9 5 -9 10 0 6 7 10 16 10 8 0 12 -4 9 -10z
m1225 -20 c-8 -5 -19 -10 -25 -10 -5 0 -3 5 5 10 8 5 20 10 25 10 6 0 3 -5 -5
-10z m-975 -10 c-3 -5 -13 -10 -21 -10 -8 0 -12 5 -9 10 3 6 13 10 21 10 8 0
12 -4 9 -10z m1025 -10 c0 -5 -9 -10 -20 -10 -11 0 -20 5 -20 10 0 6 9 10 20
10 11 0 20 -4 20 -10z m-1183 -31 c1 -14 -3 -19 -15 -17 -24 5 -28 38 -5 38
12 0 19 -8 20 -21z m377 -60 c-3 -5 -19 -9 -35 -9 -18 0 -28 -4 -24 -10 3 -5
16 -10 28 -10 19 0 18 -2 -8 -16 -16 -8 -38 -23 -47 -31 -17 -15 -18 -14 -18
9 0 14 7 28 15 32 8 3 15 12 15 20 0 8 12 19 28 24 30 10 55 5 46 -9z m286
-19 c24 -13 15 -40 -11 -33 -23 6 -33 19 -24 33 8 12 12 12 35 0z m-7 -69 c42
-26 43 -28 22 -67 -19 -36 -19 -65 -1 -109 15 -34 15 -35 -10 -35 -13 0 -24 5
-24 10 0 6 -7 10 -15 10 -8 0 -15 5 -15 10 0 6 -4 10 -10 10 -5 0 -7 -6 -4
-13 2 -7 -4 -13 -16 -14 -21 -2 -28 13 -8 19 29 10 -6 24 -53 22 -34 -1 -47 1
-38 7 8 5 24 9 37 9 13 0 22 6 22 15 0 8 -4 15 -9 15 -5 0 -13 10 -16 21 -4
12 -25 39 -48 59 -57 53 -45 63 62 58 66 -4 95 -10 124 -27z m-173 -71 c0 -5
-4 -10 -10 -10 -5 0 -10 5 -10 10 0 6 5 10 10 10 6 0 10 -4 10 -10z m20 -35
c-13 -15 -53 -28 -44 -13 3 5 -1 15 -11 21 -13 11 -9 12 25 9 32 -3 38 -7 30
-17z m680 14 c0 -6 -6 -9 -13 -6 -8 3 -20 1 -28 -4 -11 -7 -9 -9 9 -9 12 0 22
-4 22 -9 0 -5 -10 -7 -22 -4 -18 4 -20 2 -8 -6 24 -17 7 -21 -33 -7 -45 15
-57 26 -29 26 12 0 21 3 21 8 -3 18 4 22 41 22 23 0 40 -5 40 -11z m50 -8 c0
-11 -26 -22 -34 -14 -12 12 -5 23 14 23 11 0 20 -4 20 -9z m-1450 -45 c0 -3
-4 -8 -10 -11 -5 -3 -10 -1 -10 4 0 6 5 11 10 11 6 0 10 -2 10 -4z m1404 -18
c-9 -31 -12 -34 -25 -21 -15 15 -4 43 16 43 12 0 15 -6 9 -22z m-294 -57 c0
-11 -9 -21 -22 -25 -36 -9 -88 -7 -88 4 0 6 8 10 18 10 9 0 28 7 42 14 35 20
50 19 50 -3z m-237 -16 c30 -29 35 -45 12 -45 -8 0 -15 7 -15 15 0 8 -9 19
-20 25 -20 10 -28 30 -12 30 4 0 20 -11 35 -25z m72 -37 c5 4 5 1 1 -5 -10
-19 -36 -16 -36 3 0 13 3 14 13 5 8 -6 18 -7 22 -3z m-719 -55 c-10 -10 -19 5
-10 18 6 11 8 11 12 0 2 -7 1 -15 -2 -18z m34 -28 c0 -8 -7 -15 -16 -15 -14 0
-14 3 -4 15 7 8 14 15 16 15 2 0 4 -7 4 -15z m976 -4 c-3 -5 1 -11 9 -15 8 -3
15 -13 15 -22 0 -12 -7 -15 -25 -12 -28 6 -36 -18 -10 -28 8 -4 15 -11 15 -16
0 -6 -7 -4 -17 3 -9 8 -18 13 -20 12 -11 -9 -23 0 -23 17 0 11 -4 20 -10 20
-5 0 -10 -4 -10 -10 0 -5 -7 -10 -15 -10 -19 0 -19 0 1 38 13 28 21 32 55 32
22 0 38 -4 35 -9z m-186 -71 c0 -5 -2 -10 -4 -10 -3 0 -8 5 -11 10 -3 6 -1 10
4 10 6 0 11 -4 11 -10z m50 -20 c0 -5 -2 -10 -4 -10 -3 0 -8 5 -11 10 -3 6 -1
10 4 10 6 0 11 -4 11 -10z m-62 -18 c2 -7 -6 -12 -17 -12 -21 0 -27 11 -14 24
9 9 26 2 31 -12z m372 -15 c10 -3 5 -7 -13 -12 -34 -9 -38 -6 -30 23 4 19 7
20 17 8 6 -7 18 -16 26 -19z m-1567 -41 c34 -29 34 -36 1 -36 -18 0 -25 -4
-21 -14 9 -22 -3 -26 -24 -8 -17 15 -17 18 -4 39 19 29 19 31 -7 36 -22 4 -22
4 2 6 14 0 37 -10 53 -23z m12 -146 c3 -5 -1 -10 -9 -10 -8 0 -18 5 -21 10 -3
6 1 10 9 10 8 0 18 -4 21 -10z m2296 -137 c11 -20 11 -27 2 -30 -7 -3 -13 -13
-13 -22 0 -26 -9 -31 -36 -21 -23 9 -24 8 -18 -18 l6 -27 -16 22 c-15 20 -15
26 -1 59 8 20 13 40 10 44 -5 8 13 16 41 19 6 0 17 -11 25 -26z m-1221 -104
c0 -5 -9 -9 -20 -9 -11 0 -20 6 -20 14 0 9 7 12 20 9 11 -3 20 -9 20 -14z
m1005 -80 c-10 -38 -30 -59 -62 -63 -28 -4 -29 -3 -25 31 4 28 8 34 23 30 11
-3 16 -1 13 5 -3 5 2 18 12 29 15 17 20 18 31 6 9 -8 12 -23 8 -38z m145 -19
c0 -11 -4 -20 -10 -20 -5 0 -10 9 -10 20 0 11 5 20 10 20 6 0 10 -9 10 -20z
m-1470 0 c0 -5 -4 -10 -10 -10 -5 0 -10 5 -10 10 0 6 5 10 10 10 6 0 10 -4 10
-10z m42 -14 c-5 -6 -12 -18 -15 -26 -3 -8 -6 -1 -6 17 -1 25 2 31 14 27 10
-4 12 -10 7 -18z m-47 -26 c3 -5 1 -10 -4 -10 -6 0 -11 5 -11 10 0 6 2 10 4
10 3 0 8 -4 11 -10z m-72 -16 c9 -10 -4 -34 -19 -34 -8 0 -14 9 -14 20 0 19
19 27 33 14z m-61 -26 c-9 -9 -15 -9 -24 0 -9 9 -7 12 12 12 19 0 21 -3 12
-12z m1551 -3 c-3 -9 -8 -14 -10 -11 -3 3 -2 9 2 15 9 16 15 13 8 -4z m-1833
-15 c0 -5 -9 -10 -21 -10 -11 0 -17 5 -14 10 3 6 13 10 21 10 8 0 14 -4 14
-10z m217 -6 c-3 -3 -12 -4 -19 -1 -8 3 -5 6 6 6 11 1 17 -2 13 -5z m85 -20
c-7 -12 -11 -13 -17 -4 -4 7 -2 16 6 21 18 11 23 4 11 -17z m-46 -21 c-10 -10
-19 5 -10 18 6 11 8 11 12 0 2 -7 1 -15 -2 -18z m-521 -121 c6 -19 4 -23 -11
-20 -17 3 -28 34 -17 51 7 11 19 -2 28 -31z m-45 18 c0 -5 -7 -10 -15 -10 -8
0 -15 -5 -15 -12 0 -9 -3 -9 -12 0 -10 10 -10 15 2 22 20 13 40 13 40 0z m10
-60 c13 -9 13 -10 0 -10 -8 0 -22 5 -30 10 -13 9 -13 10 0 10 8 0 22 -5 30
-10z m-103 -26 c-3 -3 -12 -4 -19 -1 -8 3 -5 6 6 6 11 1 17 -2 13 -5z m-12
-44 c3 -5 1 -10 -4 -10 -6 0 -11 5 -11 10 0 6 2 10 4 10 3 0 8 -4 11 -10z
m-465 -194 c0 -8 -7 -16 -15 -20 -10 -4 -15 1 -15 14 0 11 7 20 15 20 8 0 15
-6 15 -14z m240 -40 c0 -2 -7 -7 -16 -10 -8 -3 -12 -2 -9 4 6 10 25 14 25 6z
m-246 -21 c-4 -8 -8 -15 -10 -15 -2 0 -4 7 -4 15 0 8 4 15 10 15 5 0 7 -7 4
-15z m31 -4 c3 -5 1 -12 -5 -16 -5 -3 -10 1 -10 9 0 18 6 21 15 7z m-84 -63
c6 -12 6 -18 -1 -18 -5 0 -10 7 -10 15 0 8 -5 15 -11 15 -6 0 -17 6 -25 14
-10 11 -11 15 -1 19 12 5 30 -12 48 -45z m-114 36 c-3 -3 -12 -4 -19 -1 -8 3
-5 6 6 6 11 1 17 -2 13 -5z m243 -13 c0 -6 -4 -13 -10 -16 -5 -3 -10 1 -10 9
0 9 5 16 10 16 6 0 10 -4 10 -9z m132 -21 c12 0 18 -3 15 -6 -3 -4 -1 -16 5
-28 11 -20 10 -20 -9 -3 -11 9 -33 18 -49 18 -16 1 -22 3 -13 6 11 3 15 11 12
26 -4 20 -3 20 7 5 6 -10 21 -18 32 -18z m-172 0 c0 -5 -4 -10 -10 -10 -5 0
-10 5 -10 10 0 6 5 10 10 10 6 0 10 -4 10 -10z m58 -28 c2 -7 -3 -12 -12 -12
-9 0 -16 7 -16 16 0 17 22 14 28 -4z m-38 -13 c0 -5 -4 -9 -10 -9 -5 0 -10 7
-10 16 0 8 5 12 10 9 6 -3 10 -10 10 -16z m133 -14 c1 -5 -6 -11 -15 -13 -11
-2 -18 3 -18 13 0 17 30 18 33 0z m-84 -36 c-8 -5 -21 -9 -29 -9 -12 1 -11 4
4 15 10 8 23 12 29 8 5 -3 3 -9 -4 -14z m121 11 c0 -13 37 -13 43 0 3 6 4 5 3
-2 -3 -18 -49 -27 -63 -13 -7 7 -9 16 -6 19 10 9 23 7 23 -4z m-73 -16 c-3 -3
-12 -4 -19 -1 -8 3 -5 6 6 6 11 1 17 -2 13 -5z m683 -424 c0 -5 -4 -10 -10
-10 -5 0 -10 5 -10 10 0 6 5 10 10 10 6 0 10 -4 10 -10z m55 -19 c3 -5 1 -12
-5 -16 -5 -3 -10 1 -10 9 0 18 6 21 15 7z m60 -85 c0 -15 -4 -21 -9 -16 -5 5
-6 16 -3 24 9 22 12 20 12 -8z m-435 -11 c0 -12 7 -14 28 -9 24 7 26 6 14 -9
-10 -11 -20 -13 -35 -8 -23 9 -37 41 -18 41 6 0 11 -7 11 -15z m455 -35 c-10
-11 -20 -18 -23 -16 -5 6 21 35 32 36 5 0 1 -9 -9 -20z m-135 -51 c0 -5 -4 -9
-10 -9 -5 0 -10 7 -10 16 0 8 5 12 10 9 6 -3 10 -10 10 -16z m115 1 c3 -5 1
-10 -4 -10 -6 0 -11 5 -11 10 0 6 2 10 4 10 3 0 8 -4 11 -10z m-8 -24 c4 -3
-12 -6 -35 -6 -29 0 -42 4 -42 14 0 11 8 12 36 6 19 -5 38 -11 41 -14z"/>
<path d="M3600 4510 c0 -5 10 -10 23 -10 18 0 19 2 7 10 -19 13 -30 13 -30 0z"/>
<path d="M3790 4480 c0 -5 12 -10 28 -9 24 0 25 1 7 9 -27 12 -35 12 -35 0z"/>
<path d="M3731 4444 c0 -11 3 -14 6 -6 3 7 2 16 -1 19 -3 4 -6 -2 -5 -13z"/>
<path d="M4219 4293 c-13 -16 -12 -17 4 -4 16 13 21 21 13 21 -2 0 -10 -8 -17
-17z"/>
<path d="M4097 4293 c-12 -11 -8 -23 8 -23 8 0 15 7 15 15 0 16 -12 20 -23 8z"/>
<path d="M4160 4273 c0 -6 8 -17 18 -24 16 -13 16 -13 2 6 -8 11 -16 22 -17
24 -2 2 -3 0 -3 -6z"/>
<path d="M4232 4100 c-15 -25 -15 -30 1 -30 6 0 13 11 13 25 2 30 2 30 -14 5z"/>
<path d="M4005 4030 c-3 -5 1 -10 10 -10 9 0 13 5 10 10 -3 6 -8 10 -10 10 -2
0 -7 -4 -10 -10z"/>
<path d="M4280 4025 c0 -9 5 -15 11 -13 6 2 11 8 11 13 0 5 -5 11 -11 13 -6 2
-11 -4 -11 -13z"/>
<path d="M4346 3963 c-11 -11 -6 -23 9 -23 8 0 15 4 15 9 0 13 -16 22 -24 14z"/>
<path d="M4233 3873 c9 -9 20 -13 24 -9 4 4 1 11 -7 16 -25 16 -35 11 -17 -7z"/>
<path d="M3630 3780 c0 -5 5 -10 10 -10 6 0 10 5 10 10 0 6 -4 10 -10 10 -5 0
-10 -4 -10 -10z"/>
<path d="M3515 3750 c-4 -6 11 -10 39 -10 58 0 67 14 11 18 -24 1 -47 -2 -50
-8z"/>
<path d="M4180 3680 c0 -5 5 -10 11 -10 5 0 7 5 4 10 -3 6 -8 10 -11 10 -2 0
-4 -4 -4 -10z"/>
<path d="M0 4601 c0 -174 1 -176 37 -172 22 3 113 -70 113 -91 0 -10 4 -16 10
-13 7 4 7 -3 0 -20 -14 -36 -13 -37 12 -22 13 8 42 20 65 27 40 12 42 12 75
-19 23 -22 39 -29 53 -25 24 8 95 82 95 100 0 6 17 27 37 45 51 45 93 103 84
118 -6 8 -41 12 -109 12 -60 0 -102 4 -102 9 0 6 -7 10 -15 10 -8 0 -34 14
-57 30 -22 17 -47 30 -55 30 -8 0 -22 7 -30 16 -9 8 -24 13 -35 11 -10 -3 -16
-1 -13 3 3 5 2 16 -1 25 -5 12 -9 13 -14 4 -12 -19 -42 -2 -36 19 7 21 -17 46
-54 57 -66 18 -60 33 -60 -154z"/>
<path d="M0 4275 c0 -8 7 -15 15 -15 19 0 19 16 0 24 -9 3 -15 0 -15 -9z"/>
<path d="M255 4110 c-3 -5 -1 -10 4 -10 6 0 11 5 11 10 0 6 -2 10 -4 10 -3 0
-8 -4 -11 -10z"/>
<path d="M0 3944 l0 -116 27 7 c15 3 30 10 33 15 8 13 93 111 118 136 22 23
22 23 2 34 -11 6 -20 8 -20 4 0 -3 -12 1 -26 11 -18 12 -39 16 -64 12 -20 -2
-44 0 -53 5 -15 8 -17 -2 -17 -108z"/>
<path d="M2900 3721 c0 -15 15 -21 38 -14 32 8 27 23 -8 23 -16 0 -30 -4 -30
-9z"/>
<path d="M2895 3504 c-10 -8 -14 -14 -8 -14 6 0 18 -3 27 -6 10 -4 16 -1 16 9
0 23 -13 27 -35 11z"/>
<path d="M2836 3446 c5 -15 3 -18 -11 -12 -22 8 -96 -14 -89 -26 4 -6 21 -7
39 -4 22 4 35 2 37 -6 6 -17 68 9 68 28 0 8 5 14 12 14 24 0 -11 23 -37 25
-20 0 -24 -3 -19 -19z"/>
<path d="M2580 3250 c0 -5 5 -10 10 -10 6 0 10 -7 10 -16 0 -8 -4 -13 -9 -9
-5 3 -12 1 -15 -4 -4 -5 1 -11 10 -13 13 -2 12 -7 -8 -29 -13 -14 -31 -28 -39
-31 -11 -4 -12 -9 -2 -26 10 -16 9 -23 -2 -32 -19 -16 -19 -30 0 -30 11 0 14
-7 9 -25 -7 -27 10 -35 20 -9 4 11 14 14 35 9 16 -3 32 -2 35 4 4 6 14 8 24 5
14 -5 15 -4 2 5 -12 8 -12 11 3 17 19 7 22 25 8 52 -24 48 -32 70 -30 83 2 8
0 26 -4 42 -6 20 -14 27 -32 27 -14 0 -25 -4 -25 -10z"/>
<path d="M3360 3240 c0 -5 7 -10 16 -10 8 0 12 5 9 10 -3 6 -10 10 -16 10 -5
0 -9 -4 -9 -10z"/>
<path d="M4053 3100 c-4 -15 -11 -19 -26 -14 -16 5 -19 3 -14 -11 4 -9 7 -20
7 -25 0 -4 13 -10 29 -12 28 -4 33 4 18 30 -5 7 -5 21 -2 32 4 11 3 20 0 20
-4 0 -9 -9 -12 -20z"/>
<path d="M2685 3050 c-3 -5 -1 -10 4 -10 6 0 11 5 11 10 0 6 -2 10 -4 10 -3 0
-8 -4 -11 -10z"/>
<path d="M2613 2993 c-14 -5 -18 -33 -5 -33 4 0 13 5 20 12 22 22 14 33 -15
21z"/>
<path d="M2522 2978 c3 -7 13 -15 24 -17 16 -3 17 -1 5 13 -16 19 -34 21 -29
4z"/>
<path d="M4100 2960 c0 -5 5 -10 11 -10 5 0 7 5 4 10 -3 6 -8 10 -11 10 -2 0
-4 -4 -4 -10z"/>
<path d="M2395 2919 c-4 -6 -4 -13 -1 -16 3 -4 6 -1 6 6 0 8 7 10 20 6 11 -4
20 -2 20 4 0 14 -37 14 -45 0z"/>
<path d="M4121 2914 c0 -11 3 -14 6 -6 3 7 2 16 -1 19 -3 4 -6 -2 -5 -13z"/>
<path d="M6362 2870 c-6 -11 -12 -27 -12 -35 0 -8 -4 -15 -10 -15 -5 0 -22
-19 -37 -42 -16 -22 -36 -53 -45 -67 -10 -14 -29 -48 -42 -76 -30 -61 -43 -76
-81 -99 -16 -10 -41 -33 -55 -52 -14 -19 -37 -51 -52 -71 -16 -20 -28 -43 -28
-51 0 -9 -9 -25 -19 -36 -10 -12 -28 -38 -39 -58 -10 -21 -23 -34 -27 -30 -4
4 -4 -11 0 -33 15 -77 4 -109 -63 -185 -28 -32 -52 -49 -84 -57 -59 -16 -113
-80 -103 -123 4 -16 1 -45 -6 -65 -12 -33 -16 -35 -56 -35 -37 0 -45 -4 -57
-28 -8 -16 -22 -34 -30 -41 -17 -15 -21 -77 -7 -100 9 -14 -15 -68 -47 -105
-25 -28 -66 -45 -82 -36 -19 10 -80 -14 -80 -32 0 -7 -23 -35 -50 -61 -28 -27
-50 -50 -50 -51 0 -2 -17 -21 -39 -44 -25 -26 -43 -57 -51 -90 -10 -37 -19
-51 -39 -60 -14 -6 -46 -23 -71 -37 -43 -25 -43 -26 -12 -20 23 5 32 3 32 -7
0 -7 9 -21 20 -31 26 -22 26 -69 0 -99 -48 -56 -80 -102 -80 -114 0 -8 -4 -14
-9 -14 -5 0 -17 -13 -28 -29 -10 -16 -43 -46 -73 -67 -30 -20 -61 -46 -68 -56
-7 -10 -20 -18 -28 -18 -10 0 -14 -13 -13 -53 2 -57 -31 -135 -68 -162 -10 -7
-19 -18 -19 -24 -4 -31 -6 -35 -12 -19 -7 17 -8 16 -20 -2 -7 -12 -8 -20 -2
-20 5 0 10 -7 10 -16 0 -14 -3 -14 -16 -3 -14 11 -15 8 -12 -26 4 -45 24 -57
38 -23 8 20 10 20 8 3 0 -11 4 -32 10 -47 6 -15 9 -34 6 -41 -5 -15 149 -127
211 -152 74 -31 86 -25 164 86 39 55 71 104 71 110 0 5 3 9 8 9 4 0 15 12 24
28 9 15 58 83 108 152 50 69 112 156 137 195 26 38 57 79 70 91 13 12 23 27
23 33 0 6 7 14 15 17 8 3 26 25 40 49 14 24 35 51 46 58 11 8 21 21 23 29 2
19 76 117 88 118 3 0 4 -9 1 -20 -3 -11 -9 -17 -14 -14 -5 3 -9 -6 -9 -19 0
-17 -7 -26 -21 -30 -14 -4 -20 -11 -16 -20 3 -8 -3 -24 -14 -35 -10 -12 -19
-26 -19 -32 0 -6 -11 -22 -25 -36 -14 -14 -25 -33 -25 -43 0 -10 -9 -26 -20
-36 -11 -10 -20 -23 -20 -28 0 -6 -11 -25 -25 -43 -14 -18 -25 -37 -25 -43 0
-6 -4 -11 -9 -11 -5 0 -18 -15 -28 -34 -34 -65 -139 -232 -269 -431 -33 -49
-63 -95 -67 -102 -6 -11 117 -13 653 -13 l660 0 0 1445 c0 1496 0 1486 -38
1425z m-992 -1705 c0 -8 -7 -15 -15 -15 -8 0 -15 7 -15 15 0 8 7 15 15 15 8 0
15 -7 15 -15z m-300 -419 c0 -18 -7 -39 -16 -47 -8 -7 -22 -25 -30 -41 -32
-61 -84 -90 -84 -47 0 11 9 32 20 46 11 14 20 32 20 39 0 8 4 14 9 14 5 0 11
9 14 20 3 11 12 20 20 20 8 0 17 7 21 15 10 27 26 16 26 -19z m-340 -411 c-7
-8 -9 -19 -5 -25 3 -5 1 -10 -4 -10 -12 0 -13 6 -5 37 4 13 10 20 16 17 5 -3
4 -11 -2 -19z m-30 -72 c-1 -17 -2 -17 -15 1 -21 27 -21 53 0 32 8 -8 15 -23
15 -33z m-74 -9 c-4 -9 -9 -15 -11 -12 -3 3 -3 13 1 22 4 9 9 15 11 12 3 -3 3
-13 -1 -22z"/>
<path d="M2370 2810 c0 -5 5 -10 11 -10 5 0 7 5 4 10 -3 6 -8 10 -11 10 -2 0
-4 -4 -4 -10z"/>
<path d="M2945 2690 c-3 -5 -1 -10 4 -10 6 0 11 5 11 10 0 6 -2 10 -4 10 -3 0
-8 -4 -11 -10z"/>
<path d="M4000 2660 c0 -5 5 -10 10 -10 6 0 10 5 10 10 0 6 -4 10 -10 10 -5 0
-10 -4 -10 -10z"/>
<path d="M4080 2660 c0 -5 9 -10 21 -10 11 0 17 5 14 10 -3 6 -13 10 -21 10
-8 0 -14 -4 -14 -10z"/>
<path d="M2800 2641 c0 -10 56 -41 75 -41 14 0 13 -4 -6 -20 -21 -17 -22 -19
-6 -20 10 0 15 -4 12 -10 -3 -5 -3 -10 2 -10 12 0 44 60 37 71 -3 5 -16 9 -29
9 -13 0 -26 4 -29 9 -7 10 -56 21 -56 12z"/>
<path d="M2957 2603 c-4 -3 -7 -11 -7 -17 0 -6 5 -5 12 2 6 6 9 14 7 17 -3 3
-9 2 -12 -2z"/>
<path d="M2730 2580 c0 -5 5 -10 10 -10 6 0 10 5 10 10 0 6 -4 10 -10 10 -5 0
-10 -4 -10 -10z"/>
<path d="M3535 2560 c-3 -5 -1 -10 4 -10 6 0 11 5 11 10 0 6 -2 10 -4 10 -3 0
-8 -4 -11 -10z"/>
<path d="M2910 2518 c0 -9 5 -20 10 -23 13 -8 13 5 0 25 -8 13 -10 13 -10 -2z"/>
<path d="M3615 2510 c3 -5 8 -10 11 -10 2 0 4 5 4 10 0 6 -5 10 -11 10 -5 0
-7 -4 -4 -10z"/>
<path d="M3700 2510 c0 -5 5 -10 10 -10 6 0 10 5 10 10 0 6 -4 10 -10 10 -5 0
-10 -4 -10 -10z"/>
<path d="M2962 2449 c2 -7 10 -15 17 -17 8 -3 12 1 9 9 -2 7 -10 15 -17 17 -8
3 -12 -1 -9 -9z"/>
<path d="M3018 2383 c7 -3 16 -2 19 1 4 3 -2 6 -13 5 -11 0 -14 -3 -6 -6z"/>
<path d="M2370 2211 c0 -5 7 -12 16 -15 14 -5 15 -4 4 9 -14 17 -20 19 -20 6z"/>
<path d="M2417 2173 c-16 -4 -15 -7 7 -24 26 -21 36 -24 36 -11 0 18 -26 38
-43 35z"/>
<path d="M2258 2043 c7 -3 16 -2 19 1 4 3 -2 6 -13 5 -11 0 -14 -3 -6 -6z"/>
<path d="M2330 1946 c0 -8 5 -18 10 -21 6 -3 10 3 10 14 0 12 -4 21 -10 21 -5
0 -10 -6 -10 -14z"/>
<path d="M2305 1921 c-3 -5 -1 -12 5 -16 5 -3 10 1 10 9 0 18 -6 21 -15 7z"/>
<path d="M1755 1891 c-3 -5 -18 -9 -33 -9 -44 0 -81 -19 -102 -54 -21 -34 -26
-96 -11 -126 4 -9 18 -38 29 -63 l20 -46 82 -7 c44 -3 86 -3 92 0 8 5 9 1 5
-10 -4 -9 -3 -15 1 -12 4 2 28 0 54 -5 42 -9 47 -13 52 -45 7 -32 9 -34 46
-34 22 0 40 -4 40 -10 0 -5 -5 -10 -11 -10 -5 0 -7 -4 -4 -10 3 -5 19 -7 34
-4 18 4 32 1 36 -7 6 -8 4 -10 -6 -4 -10 6 -11 5 -3 -4 8 -8 23 -9 52 -2 37 8
42 7 42 -9 0 -20 -17 -36 -28 -25 -3 3 0 10 8 15 9 6 10 10 3 10 -6 0 -15 -4
-18 -10 -3 -5 -15 -10 -27 -10 -17 0 -18 -2 -8 -15 7 -8 19 -15 27 -15 7 0 16
-7 19 -15 5 -11 11 -12 24 -5 23 12 33 13 26 1 -3 -5 9 -11 27 -15 19 -4 33
-2 35 4 2 5 13 10 25 11 21 0 21 1 2 9 -19 8 -19 9 3 9 13 1 33 6 45 13 21 11
21 11 2 19 -11 4 -33 8 -50 8 -23 1 -27 4 -15 11 12 8 11 10 -7 10 -12 0 -24
-6 -26 -12 -4 -10 -6 -10 -6 0 -1 6 -8 12 -16 12 -8 0 -15 4 -15 10 0 5 -24 8
-52 7 l-53 -2 1 53 c2 58 10 75 24 52 7 -12 12 -12 22 -2 9 9 9 12 -4 12 -25
0 -28 45 -4 60 21 14 21 14 -4 20 -14 3 -26 12 -26 20 -1 8 -2 21 -3 28 0 6
-11 12 -23 12 -17 0 -20 3 -9 9 8 5 12 18 8 30 -3 12 -1 19 4 15 12 -7 11 8
-1 40 -7 19 -17 26 -35 26 -16 0 -25 6 -25 15 0 21 -6 19 -47 -12 -37 -28 -37
-28 -30 -5 5 20 3 23 -14 19 -12 -3 -22 0 -26 9 -3 8 -19 14 -38 14 -19 0 -37
5 -40 10 -3 6 -15 10 -26 10 -10 0 -19 5 -19 10 0 13 -17 13 -25 1z m295 -135
c0 -2 -7 -9 -15 -16 -12 -10 -15 -10 -15 4 0 9 7 16 15 16 8 0 15 -2 15 -4z
m-19 -72 c12 -14 11 -16 -5 -13 -11 2 -21 10 -24 17 -5 17 13 15 29 -4z m-96
-53 c3 -5 1 -12 -5 -16 -5 -3 -10 1 -10 9 0 18 6 21 15 7z m-238 -27 c-3 -3
-12 -4 -19 -1 -8 3 -5 6 6 6 11 1 17 -2 13 -5z m606 -221 c-13 -2 -33 -2 -45
0 -13 2 -3 4 22 4 25 0 35 -2 23 -4z"/>
<path d="M2099 1794 c-12 -14 -11 -16 5 -13 11 2 21 10 24 17 5 17 -13 15 -29
-4z"/>
<path d="M2135 1470 c-3 -5 1 -10 9 -10 9 0 16 5 16 10 0 6 -4 10 -9 10 -6 0
-13 -4 -16 -10z"/>
<path d="M2230 1470 c-8 -5 -11 -12 -7 -16 4 -4 13 -2 19 4 15 15 7 24 -12 12z"/>
<path d="M2385 1460 c3 -5 8 -10 11 -10 2 0 4 5 4 10 0 6 -5 10 -11 10 -5 0
-7 -4 -4 -10z"/>
<path d="M2328 1423 c7 -3 16 -2 19 1 4 3 -2 6 -13 5 -11 0 -14 -3 -6 -6z"/>
<path d="M2078 1363 c7 -3 16 -2 19 1 4 3 -2 6 -13 5 -11 0 -14 -3 -6 -6z"/>
<path d="M3128 1103 c7 -3 16 -2 19 1 4 3 -2 6 -13 5 -11 0 -14 -3 -6 -6z"/>
<path d="M2986 1091 c-3 -5 1 -12 10 -15 22 -8 25 -4 9 11 -8 7 -16 9 -19 4z"/>
<path d="M3155 980 c3 -5 16 -10 28 -9 21 0 21 1 2 9 -28 12 -37 12 -30 0z"/>
<path d="M797 342 c-9 -10 -14 -22 -10 -27 5 -4 0 -5 -9 -2 -12 4 -15 2 -11
-9 4 -11 0 -15 -13 -12 -13 2 -19 -3 -18 -13 1 -11 -5 -15 -15 -12 -9 2 -27
-8 -41 -23 -14 -15 -20 -24 -14 -21 12 7 12 -29 -1 -40 -4 -5 -5 -3 -2 3 4 7
-1 18 -10 25 -15 12 -16 12 -10 -4 4 -11 3 -16 -3 -12 -12 7 -50 -12 -50 -25
0 -5 6 -7 14 -4 8 3 17 0 22 -7 5 -9 2 -10 -10 -6 -10 4 -19 1 -22 -8 -4 -8
-11 -15 -16 -15 -6 0 -4 7 3 17 12 14 12 16 -1 11 -8 -3 -14 -13 -13 -22 0
-11 -4 -15 -12 -12 -13 5 -15 -10 -3 -29 4 -6 -4 -11 -20 -12 -22 -1 -23 0 -8
6 12 5 15 10 9 14 -6 4 -16 0 -23 -8 -9 -11 -7 -16 9 -27 12 -7 21 -19 21 -26
0 -7 4 -11 9 -8 5 3 11 -3 14 -13 4 -19 20 -19 371 -20 247 -1 365 2 361 9 -4
6 -11 8 -16 5 -5 -4 -9 1 -9 10 0 9 -4 13 -10 10 -5 -3 -10 1 -10 10 0 8 -11
20 -25 27 -13 6 -22 14 -20 19 3 4 1 10 -5 14 -5 3 -10 0 -10 -7 -1 -7 -12 0
-25 17 -13 16 -27 27 -30 23 -3 -3 1 -13 10 -21 19 -19 19 -23 1 -30 -8 -3
-13 1 -12 11 0 9 -8 18 -19 20 -37 6 -85 33 -85 46 0 8 -8 17 -17 20 -35 12
-59 32 -129 104 -68 70 -71 72 -87 54z m39 -16 c22 -22 17 -28 -9 -11 -13 8
-27 12 -32 8 -4 -5 -5 -2 -1 5 9 16 24 15 42 -2z m-40 -66 c0 -9 -6 -17 -13
-17 -7 0 -9 5 -6 10 3 5 -1 13 -8 18 -10 6 -8 8 6 7 12 -1 21 -9 21 -18z m-85
-19 c-6 -10 -8 -21 -6 -25 3 -3 2 -3 -2 0 -11 8 -10 28 2 36 15 12 17 10 6
-11z m-126 -131 c-3 -5 -11 -10 -16 -10 -6 0 -7 5 -4 10 3 6 11 10 16 10 6 0
7 -4 4 -10z m645 -75 c0 -8 -4 -15 -10 -15 -5 0 -7 7 -4 15 4 8 8 15 10 15 2
0 4 -7 4 -15z"/>
<path d="M1048 153 c7 -3 16 -2 19 1 4 3 -2 6 -13 5 -11 0 -14 -3 -6 -6z"/>
</g>
</svg>
